<svg xmlns="http://www.w3.org/2000/svg" xmlns:xlink="http://www.w3.org/1999/xlink" width="500" zoomAndPan="magnify" viewBox="0 0 375 374.999991" height="500" preserveAspectRatio="xMidYMid meet" version="1.0"><defs><clipPath id="022b45090c"><path d="M 68 66.972656 L 257 66.972656 L 257 237.222656 L 68 237.222656 Z M 68 66.972656 " clip-rule="nonzero"/></clipPath></defs><g clip-path="url(#022b45090c)"><path fill="#22c55e" d="M 97.894531 202.628906 L 124.140625 237.035156 C 124.140625 237.035156 148.058594 184.21875 205.171875 166.050781 C 205.171875 166.050781 154.125 176.382812 122.695312 216.816406 L 111.601562 202.347656 L 107.542969 197.160156 L 111.640625 190.691406 C 101.714844 190.128906 91.746094 190.488281 84.230469 180.078125 C 76.710938 169.667969 86.761719 141.414062 107.984375 134.5 C 108.90625 134.175781 109.871094 133.9375 110.796875 133.695312 C 109.671875 143.019531 108.386719 155.199219 107.902344 156.445312 C 117.789062 132.449219 160.15625 44.542969 188.816406 107.570312 C 188.816406 107.570312 189.335938 105.277344 189.777344 101.78125 C 217.996094 83.53125 225.351562 104.996094 225.714844 123.644531 C 175.550781 118.902344 140.179688 169.910156 135.316406 177.347656 L 135.277344 177.386719 L 135.15625 177.546875 C 134.875 177.988281 134.710938 178.230469 134.710938 178.230469 L 137.726562 175.335938 C 170.605469 144.226562 203.40625 138.679688 217.511719 137.792969 L 234.316406 161.429688 C 234.316406 161.429688 164.617188 177.789062 138.492188 236.632812 C 138.492188 236.632812 185.679688 180.039062 256.984375 172.121094 L 234.316406 134.660156 C 246.371094 83.332031 211.726562 74.289062 191.667969 83.972656 C 190.785156 84.375 190.019531 84.617188 189.417969 84.777344 C 187.570312 75.535156 182.101562 67.011719 168.355469 66.972656 C 166.105469 66.972656 163.652344 67.171875 160.917969 67.65625 C 127.960938 73.523438 117.589844 105.878906 112.285156 123.164062 C 112.246094 123.285156 112.203125 123.484375 112.164062 123.6875 C 110.636719 123.886719 109.429688 124.089844 108.789062 124.167969 C 105.371094 124.609375 101.996094 125.375 98.617188 126.460938 C 72.933594 134.820312 63.851562 164.523438 69.917969 181.605469 C 75.226562 196.597656 85.03125 199.855469 97.8125 202.589844 Z M 97.894531 202.628906 " width="1em" height="1em" fill-opacity="1" fill-rule="evenodd"/></g></svg>